<?xml version="1.0" standalone="no"?>
<!DOCTYPE svg PUBLIC "-//W3C//DTD SVG 20010904//EN"
 "http://www.w3.org/TR/2001/REC-SVG-20010904/DTD/svg10.dtd">
<svg version="1.0" xmlns="http://www.w3.org/2000/svg"
 width="512.000000pt" height="512.000000pt" viewBox="0 0 512.000000 512.000000"
 preserveAspectRatio="xMidYMid meet">
<metadata>
Created by potrace 1.14, written by Peter Selinger 2001-2017
</metadata>
<g transform="translate(0.000000,512.000000) scale(0.100000,-0.100000)"
fill="#000000" stroke="none">
<path d="M2500 5109 c-14 -5 -36 -20 -48 -32 -49 -45 -52 -61 -49 -285 2 -196
3 -213 23 -239 53 -72 149 -95 214 -51 73 50 75 55 77 293 2 205 2 214 -20
245 -12 18 -34 42 -49 53 -31 23 -111 32 -148 16z"/>
<path d="M1710 4633 c-95 -36 -134 -156 -77 -240 41 -60 126 -86 192 -59 41
18 88 76 95 118 6 36 -7 90 -30 126 -30 47 -125 76 -180 55z"/>
<path d="M3279 4621 c-91 -50 -109 -165 -38 -245 52 -59 137 -70 202 -26 67
46 91 131 56 202 -39 78 -143 110 -220 69z"/>
<path d="M807 4406 c-69 -25 -112 -97 -102 -169 4 -23 10 -48 15 -57 5 -8 73
-79 152 -157 153 -151 174 -163 253 -149 55 11 111 71 120 128 12 79 -3 102
-163 260 -168 165 -187 175 -275 144z"/>
<path d="M4205 4409 c-20 -5 -82 -60 -177 -156 -157 -159 -169 -178 -154 -259
10 -48 71 -110 119 -119 80 -15 102 -3 245 138 157 155 171 172 178 226 15
110 -98 201 -211 170z"/>
<path d="M2398 4155 c-2 -1 -28 -6 -59 -9 -81 -10 -241 -50 -335 -85 -241 -89
-480 -253 -648 -446 -187 -216 -331 -512 -371 -768 -3 -17 -9 -57 -14 -87 -14
-81 -10 -332 5 -435 79 -525 404 -965 890 -1208 40 -20 125 -54 190 -76 371
-123 781 -104 1143 53 513 223 880 713 949 1264 9 73 9 321 0 392 -34 282
-140 545 -311 772 -83 112 -234 259 -348 340 -178 127 -449 243 -642 273 -17
3 -57 9 -87 14 -50 8 -354 13 -362 6z"/>
<path d="M585 3505 c-73 -26 -115 -100 -102 -181 16 -95 126 -154 213 -114 71
32 103 83 99 158 -6 102 -113 172 -210 137z"/>
<path d="M4445 3511 c-71 -22 -115 -75 -120 -144 -5 -72 28 -125 98 -157 69
-31 155 -2 195 66 43 73 15 181 -56 218 -33 17 -90 26 -117 17z"/>
<path d="M100 2709 c-64 -26 -99 -83 -96 -156 1 -56 21 -91 70 -127 26 -20 41
-21 246 -21 206 0 220 1 247 21 51 38 72 79 70 139 -3 58 -21 92 -71 129 -25
19 -43 21 -234 23 -124 1 -217 -2 -232 -8z"/>
<path d="M4560 2697 c-57 -38 -75 -72 -75 -137 0 -63 16 -95 69 -134 25 -19
44 -21 239 -24 208 -3 213 -3 246 20 55 37 75 72 78 133 2 60 -19 101 -70 139
-27 20 -43 21 -242 23 -205 2 -214 2 -245 -20z"/>
<path d="M607 1918 c-86 -18 -133 -81 -124 -165 7 -65 37 -109 90 -133 109
-49 223 27 221 147 -1 100 -90 172 -187 151z"/>
<path d="M4435 1915 c-88 -31 -135 -128 -101 -210 26 -62 72 -93 148 -99 51
-4 123 40 144 89 53 128 -64 264 -191 220z"/>
<path d="M1030 1239 c-14 -5 -89 -74 -168 -152 -151 -150 -169 -179 -157 -249
17 -99 130 -163 218 -125 44 19 305 285 318 324 42 127 -87 251 -211 202z"/>
<path d="M3965 1236 c-41 -18 -83 -69 -91 -111 -14 -78 -1 -101 139 -243 73
-74 144 -142 158 -153 89 -64 220 -6 244 108 14 68 -6 100 -157 250 -79 78
-156 147 -171 153 -38 14 -85 12 -122 -4z"/>
<path d="M1692 779 c-133 -67 -103 -272 42 -296 133 -21 232 110 171 227 -19
36 -71 80 -98 82 -12 0 -35 2 -50 3 -15 1 -45 -6 -65 -16z"/>
<path d="M3298 786 c-86 -36 -123 -134 -83 -219 27 -58 69 -82 140 -82 73 0
118 27 145 87 41 93 -7 192 -105 217 -47 12 -61 11 -97 -3z"/>
<path d="M2495 626 c-36 -16 -82 -68 -91 -100 -3 -12 -4 -113 -2 -223 3 -185
5 -204 24 -229 34 -46 68 -65 125 -71 45 -4 60 -1 88 19 75 51 76 55 78 293 2
205 2 214 -20 245 -12 18 -34 42 -49 53 -34 25 -113 32 -153 13z"/>
</g>
</svg>
